<svg id="Layer_1" data-name="Layer 1" xmlns="http://www.w3.org/2000/svg" xmlns:xlink="http://www.w3.org/1999/xlink" width="360" height="180" viewBox="0 0 360 180">
  <defs>
    <linearGradient id="linear-gradient" x1="32.60178" y1="161.37111" x2="162.5255" y2="110.71803" gradientUnits="userSpaceOnUse">
      <stop offset="0.08266" stop-color="#fcf84a"/>
      <stop offset="0.85649" stop-color="#ff318c"/>
    </linearGradient>
    <linearGradient id="linear-gradient-2" x1="18.25439" y1="19.99693" x2="94.9956" y2="85.77511" gradientUnits="userSpaceOnUse">
      <stop offset="0.08266" stop-color="#b74af7"/>
      <stop offset="0.75186" stop-color="#ff318c"/>
    </linearGradient>
    <linearGradient id="linear-gradient-3" x1="26.239" y1="164.46759" x2="87.82544" y2="77.08578" xlink:href="#linear-gradient"/>
  </defs>
  <g>
    <g>
      <g>
        <path d="M164.98528,116.30549a18.66,18.66,0,0,0-26.55939-16.27573l-.00427-.011L28.7226,144.07716l.00866.02122a10.97578,10.97578,0,0,0-1.55652.95617,11.13482,11.13482,0,0,0-2.32872,15.4585,10.86175,10.86175,0,0,0,12.20108,3.93151l.0013.00315.11264-.03687c.03242-.01113.06508-.02047.09743-.03192L151.9838,134.92318l-.00173-.00445A18.75912,18.75912,0,0,0,164.98528,116.30549Z" fill="url(#linear-gradient)"/>
        <path d="M96.87213,76.385a3.88749,3.88749,0,0,0-.72989-.73669l.005-.00754L40.343,19.33113l-.01027.01367A14.83823,14.83823,0,0,0,15.00565,29.54156,14.95629,14.95629,0,0,0,22.588,42.97829l-.00285.00377L91.79652,82.156l.00625-.00934a3.89255,3.89255,0,0,0,4.2439-.25684A3.9507,3.9507,0,0,0,96.87213,76.385Z" fill="url(#linear-gradient-2)"/>
        <path d="M97.03556,80.80566a3.94858,3.94858,0,0,0-.16343-4.42064,3.8661,3.8661,0,0,0-6.37146.12867l-.01713-.01126L25.55327,146.53127l.00229.00185a11.14559,11.14559,0,0,0-.70954,13.97993,10.86193,10.86193,0,0,0,15.2976,2.32364,11.00068,11.00068,0,0,0,2.45318-2.5417L97.03643,80.80622Z" fill="url(#linear-gradient-3)"/>
      </g>
      <g>
        <rect x="60.00005" y="60.00005" width="59.99991" height="59.9999"/>
        <g>
          <rect x="66.53401" y="108.74994" width="22.49996" height="3.75" fill="#fff"/>
          <g>
            <path d="M65.586,75.46716l1.67261-1.579a1.89613,1.89613,0,0,0,1.47192.86974c.64228,0,1.05716-.44154,1.05716-1.31129l.00006-5.92782,2.58254,0L72.37027,73.46a3.47982,3.47982,0,0,1-.92334,2.636,3.52935,3.52935,0,0,1-2.56918.95A3.82518,3.82518,0,0,1,65.586,75.46716Z" fill="#fff"/>
            <path d="M73.52684,67.51885l7.5335.00005,0,2.19451-4.96432,0,0,1.43178,4.496,0,0,2.04727-4.496,0,0,1.48529,5.03124,0,0,2.20787-7.60041,0Z" fill="#fff"/>
            <path d="M84.73054,69.79371l-2.79667,0,0-2.2748,8.2026.00005,0,2.27479-2.81,0-.00006,7.09192-2.59591,0Z" fill="#fff"/>
            <path d="M66.63086,80.58058l4.41606,0a3.50794,3.50794,0,0,1,2.5558.82967,2.10786,2.10786,0,0,1,.60216,1.52543v.02678a2.168,2.168,0,0,1-1.44522,2.08739,2.273,2.273,0,0,1,1.86,2.28817v.02678c0,1.60571-1.31139,2.58251-3.546,2.58249l-4.44288,0ZM71.64907,83.471c0-.5219-.41478-.80288-1.17752-.80289H69.15983l0,1.64584,1.2448,0c.78947,0,1.24445-.26762,1.24446-.81624Zm-.89651,2.66279-1.59277,0,0,1.72613,1.61949,0c.80283,0,1.24445-.30776,1.24446-.85638v-.02673C72.02373,86.46829,71.62231,86.13374,70.75256,86.13374Z" fill="#fff"/>
            <path d="M75.45156,80.58063l4.14872,0a4.147,4.147,0,0,1,3.05087,1.0036,2.92462,2.92462,0,0,1,.82955,2.18111l0,.02677a2.96755,2.96755,0,0,1-1.92683,2.89027l2.23455,3.265-2.984,0L78.91776,87.1106l-.87036,0,0,2.83677-2.59591,0Zm4.04157,4.49606c.86976,0,1.39165-.42818,1.39166-1.11063v-.02673c0-.74938-.54861-1.124-1.405-1.124l-1.43234,0,0,2.26139Z" fill="#fff"/>
            <path d="M87.08955,80.51382l2.50226,0,3.98757,9.43361-2.78331,0-.66907-1.686-3.62623,0-.66911,1.686-2.71639,0Zm2.27472,5.72708L88.3206,83.59146l-1.05717,2.64943Z" fill="#fff"/>
            <path d="M93.95994,80.55373l2.59591,0-.00009,9.36671-2.5959,0Z" fill="#fff"/>
            <path d="M97.56276,80.55373l2.422,0,3.36911,4.951.00005-4.951,2.56918,0L105.923,89.9205l-2.26141,0-3.52968-5.13831,0,5.13829-2.56918,0Z" fill="#fff"/>
            <path d="M106.36494,88.52886l1.44513-1.72612a4.85254,4.85254,0,0,0,3.0375,1.124c.70919,0,1.08388-.24084,1.08388-.64231v-.02672c0-.40147-.30776-.60218-1.5923-.90995-1.99381-.45494-3.53267-1.017-3.53265-2.93045v-.02677c0-1.7395,1.37832-2.99734,3.62635-2.99733a5.8954,5.8954,0,0,1,3.85371,1.24446l-1.29792,1.83318a4.598,4.598,0,0,0-2.62272-.92327c-.6289,0-.93669.25421-.93669.60212v.02677c0,.4282.32113.61554,1.63249.9099,2.14094.46835,3.47912,1.16418,3.4791,2.91709v.02677c0,1.91348-1.51215,3.05084-3.78692,3.05083A6.56734,6.56734,0,0,1,106.36494,88.52886Z" fill="#fff"/>
          </g>
        </g>
      </g>
    </g>
    <g>
      <path d="M157.85547,59.28969a13.936,13.936,0,0,1-5.74512,1.03321c-6.13183,0-10.74609-3.873-10.74609-11.00488,0-6.80958,4.61426-11.42481,11.35937-11.42481a11.653,11.653,0,0,1,5.16407.96875L157.21,41.153a10.22663,10.22663,0,0,0-4.38965-.90332c-5.09863,0-8.4873,3.25878-8.4873,8.97168,0,5.32421,3.06543,8.74511,8.3584,8.74511a11.2367,11.2367,0,0,0,4.583-.90332Z"/>
      <path d="M162.8252,52.70669c.06445,3.83984,2.5166,5.42187,5.35742,5.42187a10.266,10.266,0,0,0,4.32422-.80762l.48339,2.03321a12.63754,12.63754,0,0,1-5.19531.96875c-4.80859,0-7.68066-3.16309-7.68066-7.875s2.77539-8.42285,7.32519-8.42285c5.09961,0,6.45508,4.48632,6.45508,7.35839a10.73414,10.73414,0,0,1-.09668,1.32325Zm8.32617-2.03321c.03222-1.80761-.74219-4.61523-3.9375-4.61523-2.87207,0-4.13086,2.64648-4.35645,4.61523Z"/>
      <path d="M177.7334,49.25356c0-1.83984-.03223-3.4209-.12891-4.873h2.48535l.09668,3.06542h.12891a4.68686,4.68686,0,0,1,4.32422-3.42089,3.08253,3.08253,0,0,1,.80762.09668v2.67871a4.27792,4.27792,0,0,0-.96875-.09668c-2.001,0-3.4209,1.5166-3.80762,3.64648a8.00733,8.00733,0,0,0-.12891,1.32324v8.32618H177.7334Z"/>
      <path d="M192.80371,39.89419v4.48633h4.06641v2.1621h-4.06641v8.42286c0,1.93652.54883,3.0332,2.12988,3.0332a6.32873,6.32873,0,0,0,1.64649-.19336l.1289,2.12988a6.95877,6.95877,0,0,1-2.51757.3877,3.935,3.935,0,0,1-3.06543-1.19434c-.80664-.83887-1.09766-2.22656-1.09766-4.0664V46.54262H187.6084v-2.1621h2.41992V40.63637Z"/>
      <path d="M203.5498,39.99087a1.75885,1.75885,0,0,1-3.51757,0,1.73009,1.73009,0,0,1,1.77441-1.77442A1.6856,1.6856,0,0,1,203.5498,39.99087Zm-3.16308,20.00879V44.38052h2.84082V59.99966Z"/>
      <path d="M208.55176,59.99966v-13.457h-2.19434v-2.1621h2.19434v-.83985c0-4.13086,2.41992-6.80957,6.80957-6.80957a7.81873,7.81873,0,0,1,3.96972,1.0332l-.80761,2.16211a5.96484,5.96484,0,0,0-3.291-.90332c-3.00195,0-3.873,2.09766-3.873,4.582v.7754h9.06835V59.99966h-2.80761v-13.457h-6.26074v13.457Z"/>
      <path d="M227.043,52.70669c.06445,3.83984,2.5166,5.42187,5.35644,5.42187a10.26771,10.26771,0,0,0,4.3252-.80762l.4834,2.03321a12.63754,12.63754,0,0,1-5.19531.96875c-4.8086,0-7.68067-3.16309-7.68067-7.875s2.77539-8.42285,7.3252-8.42285c5.09961,0,6.45507,4.48632,6.45507,7.35839a10.73414,10.73414,0,0,1-.09668,1.32325Zm8.32617-2.03321c.03223-1.80761-.74219-4.61523-3.9375-4.61523-2.87207,0-4.13086,2.64648-4.35644,4.61523Z"/>
      <path d="M255.44141,37.08657V55.96548c0,1.38769.03222,2.96972.1289,4.03418h-2.5498l-.12891-2.71094h-.06445a5.77712,5.77712,0,0,1-5.3252,3.0664c-3.77539,0-6.67968-3.19531-6.67968-7.93945-.03223-5.19531,3.19433-8.39062,7.00293-8.39062a5.22326,5.22326,0,0,1,4.71191,2.38867h.06445V37.08657Zm-2.83985,13.65137a5.0221,5.0221,0,0,0-.1289-1.19434,4.177,4.177,0,0,0-4.09864-3.292c-2.9375,0-4.67968,2.582-4.67968,6.03516,0,3.16308,1.54882,5.77636,4.61523,5.77636a4.26927,4.26927,0,0,0,4.16309-3.38769,4.94709,4.94709,0,0,0,.1289-1.22657Z"/>
      <path d="M142.26758,86.57876a9.95251,9.95251,0,0,0,5.03418,1.41992c2.87207,0,4.55078-1.5166,4.55078-3.71094,0-2.0332-1.16211-3.19531-4.09863-4.32422-3.54981-1.25879-5.74414-3.09863-5.74414-6.16406,0-3.38867,2.80761-5.90625,7.03515-5.90625a9.88291,9.88291,0,0,1,4.8086,1.06543l-.77442,2.291a8.6584,8.6584,0,0,0-4.13086-1.03223c-2.96972,0-4.09863,1.77441-4.09863,3.25879,0,2.0332,1.32324,3.03418,4.32422,4.19531,3.67871,1.41992,5.55078,3.19531,5.55078,6.39063,0,3.35546-2.48535,6.26074-7.61621,6.26074a11.2428,11.2428,0,0,1-5.55078-1.3877Z"/>
      <path d="M160.56543,82.70669c.06445,3.83984,2.5166,5.42187,5.35742,5.42187a10.266,10.266,0,0,0,4.32422-.80762l.4834,2.03321a12.63754,12.63754,0,0,1-5.19531.96875c-4.8086,0-7.68067-3.16309-7.68067-7.875s2.77539-8.42285,7.3252-8.42285c5.09961,0,6.45508,4.48632,6.45508,7.35839a10.73614,10.73614,0,0,1-.09668,1.32325Zm8.32617-2.03321c.03223-1.80761-.74219-4.61523-3.9375-4.61523-2.87207,0-4.13086,2.64648-4.35644,4.61523Z"/>
      <path d="M175.47363,79.25356c0-1.83984-.03222-3.4209-.1289-4.873h2.48535l.09668,3.06542h.1289a4.68686,4.68686,0,0,1,4.32422-3.42089,3.08253,3.08253,0,0,1,.80762.09668v2.67871a4.27786,4.27786,0,0,0-.96875-.09668c-2.001,0-3.4209,1.5166-3.80762,3.64648a8.00739,8.00739,0,0,0-.1289,1.32324v8.32618h-2.8086Z"/>
      <path d="M188.25293,74.38052l3.06543,8.77734a39.97783,39.97783,0,0,1,1.25879,4.00195h.09668c.35547-1.291.80762-2.582,1.32324-4.00195l3.03418-8.77734H200l-6.13184,15.61914h-2.71093l-5.9375-15.61914Z"/>
      <path d="M206.16406,69.99087a1.75885,1.75885,0,0,1-3.51758,0,1.7301,1.7301,0,0,1,1.77442-1.77442A1.6856,1.6856,0,0,1,206.16406,69.99087ZM203.001,89.99966V74.38052h2.84082V89.99966Z"/>
      <path d="M222.00879,89.4186a10.45428,10.45428,0,0,1-4.48633.9043c-4.71191,0-7.77734-3.19531-7.77734-7.97168,0-4.8086,3.292-8.29395,8.39062-8.29395a9.505,9.505,0,0,1,3.9375.80664l-.64551,2.19434a6.59345,6.59345,0,0,0-3.292-.74219c-3.582,0-5.51855,2.64649-5.51855,5.90625,0,3.61426,2.32324,5.84082,5.42187,5.84082a8.0616,8.0616,0,0,0,3.48535-.77441Z"/>
      <path d="M227.043,82.70669c.06445,3.83984,2.5166,5.42187,5.35644,5.42187a10.26771,10.26771,0,0,0,4.3252-.80762l.4834,2.03321a12.63754,12.63754,0,0,1-5.19531.96875c-4.8086,0-7.68067-3.16309-7.68067-7.875s2.77539-8.42285,7.3252-8.42285c5.09961,0,6.45507,4.48632,6.45507,7.35839a10.73414,10.73414,0,0,1-.09668,1.32325Zm8.32617-2.03321c.03223-1.80761-.74219-4.61523-3.9375-4.61523-2.87207,0-4.13086,2.64648-4.35644,4.61523Z"/>
      <path d="M249.21289,68.50649a32.56306,32.56306,0,0,1,5.38867-.41992c2.77539,0,4.8086.64551,6.09961,1.80762a5.84837,5.84837,0,0,1,1.9043,4.55078,6.40209,6.40209,0,0,1-1.67774,4.64648,9.01193,9.01193,0,0,1-6.64843,2.38867,9.6766,9.6766,0,0,1-2.25879-.19335v8.71289h-2.80762Zm2.80762,10.48828a9.422,9.422,0,0,0,2.32324.22657c3.38867,0,5.4541-1.64649,5.4541-4.64747,0-2.87207-2.0332-4.25976-5.13183-4.25976a11.79078,11.79078,0,0,0-2.64551.22558Z"/>
      <path d="M274.417,89.99966l-.22558-1.96875h-.09668a5.81913,5.81913,0,0,1-4.77637,2.32421A4.44991,4.44991,0,0,1,264.542,85.8688c0-3.77539,3.35645-5.84082,9.39063-5.8086V79.737c0-1.291-.3545-3.61426-3.54981-3.61426a7.78457,7.78457,0,0,0-4.0664,1.16211l-.64551-1.87207a9.69782,9.69782,0,0,1,5.13183-1.38769c4.77637,0,5.9375,3.25976,5.9375,6.38964v5.8418a21.90824,21.90824,0,0,0,.25879,3.74317Zm-.41992-7.97071c-3.09766-.06445-6.61523.4834-6.61523,3.51758a2.51368,2.51368,0,0,0,2.67871,2.71094,3.88592,3.88592,0,0,0,3.77539-2.61426,2.97122,2.97122,0,0,0,.16113-.90332Z"/>
      <path d="M281.64551,79.25356c0-1.83984-.03223-3.4209-.12891-4.873H284.002l.09668,3.06542h.12891a4.68686,4.68686,0,0,1,4.32422-3.42089,3.08253,3.08253,0,0,1,.80762.09668v2.67871a4.278,4.278,0,0,0-.96876-.09668c-2.001,0-3.42089,1.5166-3.80761,3.64648a8.00625,8.00625,0,0,0-.12891,1.32324v8.32618h-2.80859Z"/>
      <path d="M296.71582,69.89419v4.48633h4.06641v2.1621h-4.06641v8.42286c0,1.93652.54883,3.0332,2.12988,3.0332a6.32873,6.32873,0,0,0,1.64649-.19336l.1289,2.12988a6.95877,6.95877,0,0,1-2.51757.3877,3.935,3.935,0,0,1-3.06543-1.19434c-.80664-.83887-1.09766-2.22656-1.09766-4.0664V76.54262h-2.41992v-2.1621h2.41992V70.63637Z"/>
      <path d="M304.29883,78.60805c0-1.61425-.03223-2.9375-.12891-4.22753h2.51758l.16113,2.581h.06446a5.74438,5.74438,0,0,1,5.16406-2.93652c2.16211,0,5.51855,1.291,5.51855,6.64843v9.32618h-2.83984V80.99575c0-2.5166-.93652-4.61523-3.61524-4.61523a4.035,4.035,0,0,0-3.80761,2.90527,4.08583,4.08583,0,0,0-.19336,1.32324v9.39063h-2.84082Z"/>
      <path d="M324.11426,82.70669c.06445,3.83984,2.5166,5.42187,5.35742,5.42187a10.266,10.266,0,0,0,4.32422-.80762l.4834,2.03321a12.63756,12.63756,0,0,1-5.19532.96875c-4.80859,0-7.68066-3.16309-7.68066-7.875s2.77539-8.42285,7.3252-8.42285c5.0996,0,6.45507,4.48632,6.45507,7.35839a10.73414,10.73414,0,0,1-.09668,1.32325Zm8.32617-2.03321c.03223-1.80761-.74219-4.61523-3.9375-4.61523-2.87207,0-4.13086,2.64648-4.35645,4.61523Z"/>
      <path d="M339.02246,79.25356c0-1.83984-.03223-3.4209-.12891-4.873h2.48536l.09668,3.06542h.1289a4.68686,4.68686,0,0,1,4.32422-3.42089,3.08253,3.08253,0,0,1,.80762.09668v2.67871a4.27792,4.27792,0,0,0-.96875-.09668c-2.001,0-3.4209,1.5166-3.80762,3.64648a8.00733,8.00733,0,0,0-.12891,1.32324v8.32618h-2.80859Z"/>
    </g>
  </g>
</svg>
